<?xml version="1.0" encoding="UTF-8"?>
<!DOCTYPE svg PUBLIC "-//W3C//DTD SVG 1.1//EN" "http://www.w3.org/Graphics/SVG/1.1/DTD/svg11.dtd">
<!-- Creator: CorelDRAW X7 -->
<svg width="301" height="75" viewBox="0 0 301 75" fill="none" xmlns="http://www.w3.org/2000/svg">
<path d="M71.8082 68.4575H134.744" stroke="#FEFEFE" stroke-width="3.5999"/>
<path d="M71.8082 4.57556H134.744" stroke="#FEFEFE" stroke-width="3.5999"/>
<path d="M28.5001 43.8295H7.1619V74.4065H0.906799V0.969238H24.7717C32.5983 0.969238 38.7147 2.86489 43.1056 6.67161C47.5119 10.4783 49.7151 15.78 49.7151 22.6074C49.7151 27.308 48.3439 31.4538 45.5861 35.0602C42.8437 38.6511 39.1307 41.1478 34.4933 42.5349L52.858 73.7592V74.4065H46.2486L28.5001 43.8295ZM7.1619 38.574H26.1737C31.3966 38.574 35.5718 37.0945 38.7301 34.12C41.8885 31.161 43.4754 27.3234 43.4754 22.6074C43.4754 17.4136 41.8269 13.3912 38.5299 10.5246C35.2328 7.65796 30.6262 6.24008 24.6639 6.24008H7.1619V38.574ZM167.068 0.969238L194.137 65.7913L221.314 0.969238H229.572V74.4065H223.379V42.427L223.887 9.64608L196.556 74.4065H191.764L164.541 9.90808L165.034 42.2266V74.4065H158.84V0.969238H167.068ZM286.885 53.7547H253.561L245.996 74.4065H239.479L267.272 0.969238H273.158L300.967 74.4065H294.511L286.885 53.7547ZM255.471 48.4838H284.913L270.2 8.52102L255.471 48.4838Z" fill="#FEFEFE"/>
<path d="M72.0856 36.6014C72.0856 36.6014 82.6391 32.7022 91.3439 33.9198C100.033 35.1373 107.167 37.4953 114.993 36.7863C122.804 36.062 127.241 33.2108 131.863 33.6115" stroke="#5255F0" stroke-width="3.5999"/>
</svg>
