<?xml version="1.0" encoding="UTF-8"?>
<!DOCTYPE svg PUBLIC "-//W3C//DTD SVG 1.1//EN" "http://www.w3.org/Graphics/SVG/1.1/DTD/svg11.dtd">
<!-- Creator: CorelDRAW X7 -->
<svg xmlns="http://www.w3.org/2000/svg" xml:space="preserve" width="210mm" height="297mm" version="1.1" style="shape-rendering:geometricPrecision; text-rendering:geometricPrecision; image-rendering:optimizeQuality; fill-rule:evenodd; clip-rule:evenodd"
viewBox="0 0 21000 29700"
 xmlns:xlink="http://www.w3.org/1999/xlink">
 <defs>
  <style type="text/css">
   <![CDATA[
    .str0 {stroke:#FEFEFE;stroke-width:359.99}
    .str1 {stroke:#5255F0;stroke-width:359.99}
    .fil0 {fill:none}
    .fil1 {fill:#FEFEFE;fill-rule:nonzero}
   ]]>
  </style>
 </defs>
 <g id="Слой_x0020_1">
  <metadata id="CorelCorpID_0Corel-Layer"/>
  <line class="fil0 str0" x1="5364" y1="16864" x2="9449" y2= "16864" />
  <line class="fil0 str0" x1="5364" y1="12719" x2="9449" y2= "12719" />
  <path class="fil1" d="M2553 15266l-1385 0 0 1984 -406 0 0 -4765 1549 0c508,0 905,123 1190,370 286,247 429,591 429,1034 0,305 -89,574 -268,808 -178,233 -419,395 -720,485l1192 2026 0 42 -429 0 -1152 -1984zm-1385 -341l1234 0c339,0 610,-96 815,-289 205,-192 308,-441 308,-747 0,-337 -107,-598 -321,-784 -214,-186 -513,-278 -900,-278l-1136 0 0 2098zm10379 -2440l1757 4206 1764 -4206 536 0 0 4765 -402 0 0 -2075 33 -2127 -1774 4202 -311 0 -1767 -4185 32 2097 0 2088 -402 0 0 -4765 534 0zm7777 3425l-2163 0 -491 1340 -423 0 1804 -4765 382 0 1805 4765 -419 0 -495 -1340zm-2039 -342l1911 0 -955 -2593 -956 2593z"/>
  <path class="fil0 str1" d="M5382 14797c0,0 685,-253 1250,-174 564,79 1027,232 1535,186 507,-47 795,-232 1095,-206"/>
 </g>
</svg>
