<?xml version="1.0" encoding="UTF-8"?>
<!DOCTYPE svg PUBLIC "-//W3C//DTD SVG 1.1//EN" "http://www.w3.org/Graphics/SVG/1.1/DTD/svg11.dtd">
<!-- Creator: CorelDRAW X7 -->
<svg xmlns="http://www.w3.org/2000/svg" xml:space="preserve" width="210mm" height="297mm" version="1.1" style="shape-rendering:geometricPrecision; text-rendering:geometricPrecision; image-rendering:optimizeQuality; fill-rule:evenodd; clip-rule:evenodd"
viewBox="0 0 21000 29700"
 xmlns:xlink="http://www.w3.org/1999/xlink">
 <defs>
  <style type="text/css">
   <![CDATA[
    .fil2 {fill:#00247D;fill-rule:nonzero}
    .fil1 {fill:#CE1124;fill-rule:nonzero}
    .fil0 {fill:white;fill-rule:nonzero}
   ]]>
  </style>
 </defs>
   <polygon class="fil0" points="1895,19376 19101,19376 19101,10310 1895,10310 "/>
   <polygon class="fil1" points="19102,13938 11526,13938 11526,10311 9458,10311 9458,13938 1902,13938 1902,15750 9458,15750 9458,19376 11526,19376 11526,15750 19102,15750 "/>
   <polygon class="fil2" points="1895,11366 1895,13340 5648,13340 "/>
   <polygon class="fil2" points="3965,10310 3910,10312 8777,12885 8777,10310 "/>
   <polygon class="fil1" points="7670,13327 1895,10310 1895,11022 6294,13327 "/>
   <polygon class="fil1" points="13330,16358 19105,19375 19105,18664 14706,16358 "/>
   <polygon class="fil2" points="1895,18334 1895,16361 5648,16361 "/>
   <polygon class="fil2" points="3965,19390 3910,19388 8777,16815 8777,19390 "/>
   <polygon class="fil1" points="7641,16358 1899,19373 3242,19375 8782,16480 8782,16358 "/>
   <polygon class="fil2" points="19105,11366 19105,13339 15352,13339 "/>
   <polygon class="fil2" points="17035,10310 17090,10312 12224,12885 12224,10310 "/>
   <polygon class="fil1" points="19100,10314 17808,10314 12229,13228 12229,13330 13409,13330 "/>
   <polygon class="fil2" points="19105,18334 19105,16360 15352,16360 "/>
   <polygon class="fil2" points="17035,19390 17090,19387 12224,16814 12224,19390 "/>
</svg>
